<svg xmlns="http://www.w3.org/2000/svg" xmlns:xlink="http://www.w3.org/1999/xlink"><symbol id="ellipse"><g fill="none">
    <circle cx="9" cy="9" r="9" fill="#BC3324"/>
</g></symbol><symbol id="exclamationMark"><g fill="none">
    <path fill-rule="evenodd" clip-rule="evenodd" d="M11 22c6.075 0 11-4.925 11-11S17.075 0 11 0 0 4.925 0 11s4.925 11 11 11Zm-1-6.6a1 1 0 0 1 1-1h.011a1 1 0 1 1 0 2H11a1 1 0 0 1-1-1Zm2-8.8a1 1 0 1 0-2 0V11a1 1 0 1 0 2 0V6.6Z" fill="#BC3324"/>
</g></symbol><symbol id="hands"><g fill="none">
    <path d="M14.48 7.41c-.39.39-1.04.39-1.43 0L8.58 2.95 1.53 9.99l-.66-.63a3 3 0 0 1 0-4.24L5.11.88a3 3 0 0 1 4.24 0L14.48 6c.39.39.39 1.02 0 1.41Zm.7-2.12c.78.78.78 2.05 0 2.83-1.27 1.27-2.61.22-2.83 0L8.59 4.36 3.02 9.93a.996.996 0 0 0 0 1.41c.39.39 1.02.39 1.42 0l4.62-4.62.71.71-4.62 4.62a.996.996 0 0 0 0 1.41c.39.39 1.02.39 1.42 0l4.62-4.62.71.71-4.62 4.62a.997.997 0 0 0 1.41 1.41l4.62-4.62.71.71-4.62 4.62a.997.997 0 0 0 1.41 1.41l8.32-8.34a3 3 0 0 0 0-4.24L14.89.88a3.001 3.001 0 0 0-4.18-.06l4.47 4.47Z" fill="#BC3324"/>
</g></symbol><symbol id="handset"><g fill="none">
    <path d="M20 14.92v3a2 2 0 0 1-2.18 2 19.791 19.791 0 0 1-8.63-3.07 19.5 19.5 0 0 1-6-6A19.79 19.79 0 0 1 .12 2.18 2 2 0 0 1 2.11 0h3a2 2 0 0 1 2 1.72c.127.96.361 1.903.7 2.81a2 2 0 0 1-.45 2.11L6.09 7.91a16 16 0 0 0 6 6l1.27-1.27a2 2 0 0 1 2.11-.45c.907.339 1.85.574 2.81.7A2 2 0 0 1 20 14.92Z" fill="#BC3324"/>
</g></symbol><symbol id="home"><g fill="none">
    <path d="m17 7-6-5.26a3 3 0 0 0-4 0L1 7a3 3 0 0 0-1 2.26V18a3 3 0 0 0 3 3h12a3 3 0 0 0 3-3V9.25A3 3 0 0 0 17 7Zm-6 12H7v-5a1 1 0 0 1 1-1h2a1 1 0 0 1 1 1v5Zm5-1a1 1 0 0 1-1 1h-2v-5a3 3 0 0 0-3-3H8a3 3 0 0 0-3 3v5H3a1 1 0 0 1-1-1V9.25a1 1 0 0 1 .34-.75l6-5.25a1 1 0 0 1 1.32 0l6 5.25a1 1 0 0 1 .34.75V18Z" fill="#BC3324"/>
    <path d="M16 18a1 1 0 0 1-1 1h-2v-5a3 3 0 0 0-3-3H8a3 3 0 0 0-3 3v5H3a1 1 0 0 1-1-1V9.25a1 1 0 0 1 .34-.75l6-5.25a1 1 0 0 1 1.32 0l6 5.25a1 1 0 0 1 .34.75V18Z" fill="#BC3324"/>
</g></symbol><symbol id="insta"><g fill="none">
    <path d="M12 7a5 5 0 1 0 0 10 5 5 0 0 0 0-10Zm0 8.247a3.248 3.248 0 1 1 0-6.496 3.248 3.248 0 0 1 0 6.496ZM17 8a1 1 0 1 0 0-2 1 1 0 0 0 0 2Z" fill="currentColor"/>
    <path d="M21.47 5.444a5.106 5.106 0 0 0-2.924-2.918 7.347 7.347 0 0 0-2.428-.466c-1.07-.047-1.408-.06-4.12-.06s-3.06 0-4.12.06c-.83.016-1.65.174-2.426.466a5.11 5.11 0 0 0-2.924 2.918 7.292 7.292 0 0 0-.466 2.424C2.014 8.935 2 9.273 2 11.982c0 2.708 0 3.053.062 4.114.017.83.173 1.648.466 2.425a5.11 5.11 0 0 0 2.925 2.919 7.32 7.32 0 0 0 2.427.499C8.95 21.986 9.288 22 12 22s3.06 0 4.12-.061a7.355 7.355 0 0 0 2.428-.465 5.125 5.125 0 0 0 2.925-2.92 7.296 7.296 0 0 0 .465-2.423c.048-1.067.062-1.405.062-4.114 0-2.71 0-3.053-.062-4.114a7.286 7.286 0 0 0-.468-2.459Zm-1.352 10.57a5.585 5.585 0 0 1-.346 1.872 3.312 3.312 0 0 1-1.901 1.897 5.544 5.544 0 0 1-1.855.345c-1.055.049-1.353.061-4.058.061-2.708 0-2.984 0-4.06-.06a5.515 5.515 0 0 1-1.853-.346 3.315 3.315 0 0 1-1.91-1.897 5.625 5.625 0 0 1-.345-1.85c-.047-1.054-.059-1.351-.059-4.053s0-2.978.06-4.053a5.579 5.579 0 0 1 .345-1.87A3.314 3.314 0 0 1 6.045 4.16a5.572 5.572 0 0 1 1.853-.345c1.057-.047 1.353-.06 4.06-.06 2.706 0 2.984 0 4.058.06.634.008 1.26.125 1.855.345a3.322 3.322 0 0 1 1.901 1.899c.218.593.335 1.219.346 1.85.047 1.055.06 1.351.06 4.053s0 2.992-.048 4.052h-.012Z" fill="currentColor"/>
</g></symbol><symbol id="star"><g fill="none">
    <path d="M19.663 6.772a1 1 0 0 1 .33.462 1 1 0 0 1-.32 1.02l-4.13 4 1 5.68a1 1 0 0 1-.99 1.19.93.93 0 0 1-.46-.12l-5.1-2.68-5.12 2.67a1 1 0 0 1-1.45-1.07l1-5.68-4.13-4a1 1 0 0 1-.25-1 1 1 0 0 1 .81-.68l5.69-.84 2.55-5.16a1 1 0 0 1 1.8 0l2.55 5.17 5.69.83a1 1 0 0 1 .53.208Z" fill="#BC3324"/>
</g></symbol><symbol id="tagree"><g fill="none">
    <path d="M6.301 12.695H4.107a3.15 3.15 0 0 1-1.276-.262 3.309 3.309 0 0 1-1.037-.704 3.6 3.6 0 0 1-.698-1.066 3.227 3.227 0 0 1-.26-1.288V.604L3.23 0v3.843h1.396l.598 2.414H3.23v3.118c0 .255.086.47.26.644a.84.84 0 0 0 .617.261h1.596l.598 2.415ZM16.7 2.615v10.08h-2.393v-5.03c0-.805-.28-1.489-.838-2.052a2.757 2.757 0 0 0-2.034-.845 2.91 2.91 0 0 0-1.117.221 2.862 2.862 0 0 0-.917.624 2.806 2.806 0 0 0-.837 2.052c0 .791.279 1.469.837 2.032.266.282.572.496.918.644.358.134.73.201 1.116.201.4 0 .758-.067 1.077-.201l.858 2.152c-.612.309-1.323.463-2.134.463a5.1 5.1 0 0 1-2.034-.402 5.065 5.065 0 0 1-1.596-1.147 5.253 5.253 0 0 1-1.057-1.69 5.568 5.568 0 0 1-.378-2.052c0-.738.126-1.428.378-2.072a5.252 5.252 0 0 1 1.057-1.69 4.807 4.807 0 0 1 1.596-1.127 4.892 4.892 0 0 1 2.034-.422c.651 0 1.23.1 1.735.302.505.2.95.456 1.336.764v-.805H16.7ZM28.326 11.689c0 .724-.14 1.408-.419 2.052a5.188 5.188 0 0 1-1.116 1.69 5.41 5.41 0 0 1-1.675 1.147 5.03 5.03 0 0 1-2.054.422 5.053 5.053 0 0 1-1.696-.282 5.279 5.279 0 0 1-1.475-.804l1.735-1.73c.425.268.904.402 1.436.402.81 0 1.488-.289 2.034-.865.558-.564.837-1.24.837-2.032V7.645c0-.778-.279-1.462-.837-2.052a2.757 2.757 0 0 0-2.034-.845c-.771 0-1.45.282-2.035.845-.558.59-.837 1.274-.837 2.052 0 .805.28 1.489.837 2.052.585.563 1.264.845 2.035.845.398 0 .757-.067 1.076-.201l.898 2.253a5.12 5.12 0 0 1-1.935.362h-.04a5.194 5.194 0 0 1-2.034-.402 5.41 5.41 0 0 1-2.811-2.837 5.151 5.151 0 0 1-.42-2.072 5.9 5.9 0 0 1 .36-2.072c.24-.644.572-1.207.997-1.69a4.65 4.65 0 0 1 1.555-1.127 4.71 4.71 0 0 1 1.995-.422c.69 0 1.303.107 1.834.322.532.2.997.456 1.396.764v-.784h2.393v9.053ZM31.92 3.4a5.173 5.173 0 0 1 1.257-.764 4.132 4.132 0 0 1 1.615-.302v2.414c-.797 0-1.476.282-2.034.845-.558.59-.837 1.274-.837 2.052v5.05h-2.393V2.615h2.393V3.4ZM42.85 8.872h-5.224c.133.309.325.584.578.825.28.282.592.496.937.644.346.134.712.201 1.097.201.545 0 1.03-.127 1.456-.382l2.493 1.006a5.143 5.143 0 0 1-1.735 1.327 5.28 5.28 0 0 1-2.214.463 5.245 5.245 0 0 1-2.054-.402 5.41 5.41 0 0 1-2.812-2.837 5.322 5.322 0 0 1-.399-2.052c0-.738.133-1.428.4-2.072a5.462 5.462 0 0 1 1.136-1.69 5.136 5.136 0 0 1 1.675-1.127 5.03 5.03 0 0 1 2.054-.422c.731 0 1.416.14 2.054.422a5.136 5.136 0 0 1 1.675 1.127c.479.483.851 1.046 1.117 1.69.28.644.419 1.334.419 2.072 0 .43-.047.832-.14 1.207H42.85Zm-2.612-4.104c-.771 0-1.449.282-2.034.845a2.73 2.73 0 0 0-.578.845h5.224a2.732 2.732 0 0 0-.578-.845 2.757 2.757 0 0 0-2.034-.845ZM54.185 8.872H48.96c.133.309.326.584.578.825.28.282.592.496.937.644.346.134.712.201 1.097.201.545 0 1.03-.127 1.456-.382l2.493 1.006a5.143 5.143 0 0 1-1.735 1.327 5.281 5.281 0 0 1-2.214.463 5.245 5.245 0 0 1-2.054-.402 5.41 5.41 0 0 1-2.812-2.837 5.322 5.322 0 0 1-.398-2.052c0-.738.133-1.428.398-2.072a5.464 5.464 0 0 1 1.137-1.69 5.136 5.136 0 0 1 1.675-1.127 5.03 5.03 0 0 1 2.054-.422c.731 0 1.416.14 2.054.422a5.136 5.136 0 0 1 1.675 1.127c.479.483.851 1.046 1.117 1.69.28.644.419 1.334.419 2.072 0 .43-.047.832-.14 1.207h-2.512Zm-2.613-4.104c-.77 0-1.449.282-2.034.845a2.73 2.73 0 0 0-.578.845h5.225a2.73 2.73 0 0 0-.579-.845 2.757 2.757 0 0 0-2.034-.845Z" fill="#1F1E1E"/>
</g></symbol><symbol id="text1"><g fill="none">
    <path d="M-27.424 90V2.96h48V90h18.176V.784H-45.6V90h18.176Zm78.949 33.664h18.176V87.312c3.584 1.664 10.752 4.864 21.504 4.864 20.992 0 41.088-4.992 41.088-33.28 0-27.52-14.976-34.944-33.408-34.944-14.336 0-21.248 7.168-26.624 23.296-1.28 3.712-1.92 7.552-2.56 11.392V26H51.525v97.664Zm44.416-97.28c13.824 0 17.664 13.824 17.664 32.512 0 27.008-9.216 30.72-25.088 30.72-10.752 0-15.36-3.584-18.816-5.248.384-16.768 2.688-57.984 26.24-57.984Zm45.289 31.744c0 22.4 19.456 33.92 40.448 33.92 20.864 0 40.448-11.52 40.448-33.92 0-22.528-19.584-34.176-40.448-34.176-20.992 0-40.448 11.648-40.448 34.176ZM181.678 26c16 0 21.76 9.984 21.76 32.128 0 21.76-4.864 32-21.76 32-17.408 0-21.76-10.24-21.76-32 0-22.144 5.888-32.128 21.76-32.128Zm88.211 66.048c19.84 0 29.184-9.728 31.36-11.52l-1.024-1.28c-8.32 7.168-18.688 10.624-30.336 10.624-15.232 0-19.84-13.824-19.84-31.744 0-21.376 7.424-31.872 19.84-31.872 17.28 0 23.936 7.424 25.344 15.744l2.176-.512c-1.408-9.344-9.984-17.408-27.52-17.408-23.04 0-38.784 14.336-38.784 34.048 0 19.456 14.592 33.92 38.784 33.92Zm59.955-63.872V90h18.176V28.176h25.216V26H304.5v2.176h25.344Zm41.511 29.952c0 22.4 19.456 33.92 40.448 33.92 20.864 0 40.448-11.52 40.448-33.92 0-22.528-19.584-34.176-40.448-34.176-20.992 0-40.448 11.648-40.448 34.176ZM411.803 26c16 0 21.76 9.984 21.76 32.128 0 21.76-4.864 32-21.76 32-17.408 0-21.76-10.24-21.76-32 0-22.144 5.888-32.128 21.76-32.128Zm167.109 64c6.912.128 12.672 5.76 12.672 12.928 0 7.04-5.76 12.8-12.928 12.8-7.168 0-12.928-5.76-12.928-12.8h-2.048c0 8.192 6.656 14.976 14.976 14.976s14.976-6.784 14.976-14.976c0-7.68-5.248-13.952-13.056-14.976C571.744 63.888 565.6 49.936 556.384 26h-19.072l-12.16 35.328c-8.32 24.192-10.496 26.496-15.872 26.496V90h69.632Zm-61.056-4.992c2.56-4.096 5.376-11.52 9.344-22.912L538.592 29.2l22.784 58.752h-45.952c.768-.768 1.664-1.664 2.432-2.944Zm66.624-26.88c0 19.456 14.592 33.92 39.552 33.92 12.16 0 20.608-3.456 30.592-11.52l-1.152-1.408c-8.32 7.168-18.56 10.752-30.208 10.752-14.848 0-18.816-13.312-19.584-25.856h49.28c0-21.248-3.456-39.936-29.696-39.936-20.224 0-38.784 11.904-38.784 34.048Zm19.072 3.84v-3.712c0-13.568 3.072-32.128 19.712-32.128 23.552 0 27.52 16.64 27.52 35.84h-47.232ZM659.215 90h2.304l20.608-60.928L705.807 90h19.072l-24.832-64h-19.072l-21.76 64Zm101.723 2.048c19.968 0 26.112-15.872 28.928-32.64l.256-1.536V90h18.176V49.936c0-22.144-19.2-25.856-34.56-25.856-23.296 0-33.536 8.32-37.632 14.848l13.44 6.4c-10.624 2.304-18.816 9.6-18.816 21.376 0 20.992 13.056 25.344 30.208 25.344Zm4.096-45.824h24.32c-1.408 18.432-4.992 43.904-28.544 43.904-7.552 0-11.392-5.376-11.392-22.144 0-16 5.248-21.76 15.616-21.76Zm-10.368-1.792c0-3.072 4.608-18.432 18.432-18.432 16.128 0 16.512 4.992 16.512 18.048h-28.8c-2.176 0-4.224.128-6.144.384ZM821.15 90h18.176c4.864 0 16.896-1.408 27.008-9.984 7.936-6.784 12.672-16.256 15.488-28.928V90h18.176V26h-18.176v8.32c-2.432 49.024-32.512 53.376-42.496 53.504V26H821.15v64Zm39.424-73.6c5.248 0 9.472-4.224 9.472-9.344h-2.176c0 3.968-3.2 7.296-7.296 7.296-3.968 0-7.296-3.328-7.296-7.296h-2.048c0 5.12 4.224 9.344 9.344 9.344Zm71.145 11.776V90h18.176V28.176h25.216V26h-68.736v2.176h25.344Zm41.511 29.952c0 19.456 14.592 33.92 39.55 33.92 12.16 0 20.61-3.456 30.59-11.52l-1.15-1.408c-8.32 7.168-18.56 10.752-30.21 10.752-14.844 0-18.812-13.312-19.58-25.856h49.28c0-21.248-3.46-39.936-29.7-39.936-20.22 0-38.78 11.904-38.78 34.048Zm19.072 3.84v-3.712c0-13.568 3.072-32.128 19.708-32.128 23.56 0 27.52 16.64 27.52 35.84h-47.228Zm67.378 30.208c3.33 0 6.66-1.92 8.45-4.48.13 4.608-1.66 8.832-6.14 10.752a11.1 11.1 0 0 1-4.1.768c-2.18 0-4.48-.64-6.53-1.792l-1.02 1.92c2.3 1.28 4.86 1.92 7.55 1.92 5.38 0 10.24-3.2 11.78-8.576.89-3.072 1.02-8.448.76-11.392-.64-6.144-4.99-10.112-10.75-10.112s-10.49 4.608-10.49 10.496c0 5.632 4.99 10.496 10.49 10.496Zm97.59-22.144c16.51 0 22.53-9.6 25.99-27.648V90h18.17V26h-18.17c0 3.328.12 7.552-3.46 22.144-3.84 15.36-11.26 19.712-22.66 19.712-7.55 0-8.06-4.736-8.06-18.688V26h-18.3v16.256c0 19.328 9.34 27.776 26.49 27.776Zm75.95-41.856V90h18.18V28.176h25.21V26h-68.73v2.176h25.34Zm41.51 29.952c0 22.4 19.46 33.92 40.45 33.92 20.86 0 40.45-11.52 40.45-33.92 0-22.528-19.59-34.176-40.45-34.176-20.99 0-40.45 11.648-40.45 34.176ZM1315.18 26c16 0 21.76 9.984 21.76 32.128 0 21.76-4.87 32-21.76 32-17.41 0-21.76-10.24-21.76-32 0-22.144 5.89-32.128 21.76-32.128Zm120.77 64V57.36h42.24V90h18.18V26h-18.18v29.184h-42.24V26h-18.17v64h18.17Zm73.2 33.664h18.18V87.312c3.58 1.664 10.75 4.864 21.5 4.864 20.99 0 41.09-4.992 41.09-33.28 0-27.52-14.98-34.944-33.41-34.944-14.34 0-21.25 7.168-26.62 23.296-1.28 3.712-1.92 7.552-2.56 11.392V26h-18.18v97.664Zm44.42-97.28c13.82 0 17.66 13.824 17.66 32.512 0 27.008-9.22 30.72-25.09 30.72-10.75 0-15.36-3.584-18.81-5.248.38-16.768 2.68-57.984 26.24-57.984Zm75.49 65.664c19.97 0 26.12-15.872 28.93-32.64l.26-1.536V90h18.17V49.936c0-22.144-19.2-25.856-34.56-25.856-23.29 0-33.53 8.32-37.63 14.848l13.44 6.4c-10.62 2.304-18.81 9.6-18.81 21.376 0 20.992 13.05 25.344 30.2 25.344Zm4.1-45.824h24.32c-1.41 18.432-4.99 43.904-28.54 43.904-7.56 0-11.4-5.376-11.4-22.144 0-16 5.25-21.76 15.62-21.76Zm-10.37-1.792c0-3.072 4.61-18.432 18.43-18.432 16.13 0 16.52 4.992 16.52 18.048h-28.8c-2.18 0-4.23.128-6.15.384ZM1728.57 90c15.49 0 32.51.384 32.51-17.408 0-12.8-9.21-16.128-20.35-17.152 7.04-1.536 15.23-5.632 15.23-15.488 0-13.952-13.18-15.872-26.62-15.872-14.72 0-20.48 8.576-22.02 14.08V26h-18.04v64h39.29Zm-21.25-33.28h19.08c10.88 0 15.61 3.072 15.61 16 0 15.104-7.29 15.104-20.35 15.104h-14.34V56.72Zm0-11.264c1.41-9.6 7.56-19.072 19.97-19.072 7.55 0 10.24 2.432 10.24 13.696 0 13.056-5.12 14.464-12.67 14.464h-17.54v-9.088ZM1772.03 90h18.17c22.53 0 37.63-16.64 42.5-38.912V90h18.17V26h-18.17v8.192c-2.44 49.024-32.51 53.632-42.5 53.632V26h-18.17v64Zm110.56-61.824V90h18.18V28.176h25.22V26h-68.74v2.176h25.34Zm80.3 63.872c19.84 0 29.18-9.728 31.36-11.52l-1.02-1.28c-8.32 7.168-18.69 10.624-30.34 10.624-15.23 0-19.84-13.824-19.84-31.744 0-21.376 7.42-31.872 19.84-31.872 17.28 0 23.94 7.424 25.34 15.744l2.18-.512c-1.41-9.344-9.98-17.408-27.52-17.408-23.04 0-38.78 14.336-38.78 34.048 0 19.456 14.59 33.92 38.78 33.92Zm68.66-26.368-6.4 16.896c-1.41 3.84-5.12 6.528-9.22 6.528h-.51c-5.38 0-9.6-4.992-9.6-10.24 0-2.688 1.02-5.12 2.82-7.04l-1.54-1.536c-2.18 2.304-3.46 5.376-3.46 8.576 0 6.4 5.12 12.288 11.78 12.288h.51c4.99 0 9.47-3.072 11.27-7.808l6.65-17.664h22.66c.51 7.04.51 19.712.51 24.32h18.43V26h-18.43v21.888c-.38-5.376-3.07-24.064-23.3-24.064-18.17 0-31.74 5.76-31.74 20.224 0 14.976 7.68 21.632 29.57 21.632Zm3.2-39.936c20.48 0 21.12 23.936 21.5 34.432l.13 3.328h-19.58c-11.01 0-16.39-4.352-16.39-18.688 0-14.592 5.63-19.072 14.34-19.072Zm60.06 66.432c3.32 0 6.65-1.92 8.44-4.48.13 4.608-1.66 8.832-6.14 10.752a11.1 11.1 0 0 1-4.1.768c-2.17 0-4.48-.64-6.52-1.792l-1.03 1.92c2.31 1.28 4.87 1.92 7.55 1.92 5.38 0 10.24-3.2 11.78-8.576.9-3.072 1.02-8.448.77-11.392-.64-6.144-4.99-10.112-10.75-10.112s-10.5 4.608-10.5 10.496c0 5.632 4.99 10.496 10.5 10.496Z" fill="#1F1E1E"/>
</g></symbol><symbol id="text2"><g fill="none">
    <path d="M30.688 98.048c19.968 0 26.112-15.872 28.928-32.64l.256-1.536V96h18.176V55.936c0-22.144-19.2-25.856-34.56-25.856-23.296 0-33.536 8.32-37.632 14.848l13.44 6.4C8.672 53.632.48 60.928.48 72.704c0 20.992 13.056 25.344 30.208 25.344Zm4.096-45.824h24.32c-1.408 18.432-4.992 43.904-28.544 43.904-7.552 0-11.392-5.376-11.392-22.144 0-16 5.248-21.76 15.616-21.76Zm-10.368-1.792C24.416 47.36 29.024 32 42.848 32c16.128 0 16.512 4.992 16.512 18.048h-28.8c-2.176 0-4.224.128-6.144.384ZM142.15 96h18.176V35.456l26.88 34.944 26.88-34.944V96h18.176V32H213.83l-26.624 34.944L160.454 32H142.15v64Zm102.875-64v64h33.664c21.632 0 39.04-2.56 39.04-24.832 0-19.712-19.328-24.576-35.584-24.576h-18.944V32h-18.176Zm18.176 61.824V48.768h12.928c11.392 0 22.784 4.352 22.784 22.4 0 18.176-8.448 22.656-26.24 22.656h-9.472ZM323.489 32v64h18.176V32h-18.176Zm121.582 64c15.488 0 32.512.384 32.512-17.408 0-12.8-9.216-16.128-20.352-17.152 7.04-1.536 15.232-5.632 15.232-15.488 0-13.952-13.184-15.872-26.624-15.872-14.72 0-20.48 8.576-22.016 14.08V32h-18.048v64h39.296Zm-21.248-33.28h19.072c10.88 0 15.616 3.072 15.616 16 0 15.104-7.296 15.104-20.352 15.104h-14.336V62.72Zm0-11.264c1.408-9.6 7.552-19.072 19.968-19.072 7.552 0 10.24 2.432 10.24 13.696 0 13.056-5.12 14.464-12.672 14.464h-17.536v-9.088Zm92.99 46.592c19.968 0 26.112-15.872 28.928-32.64l.256-1.536V96h18.176V55.936c0-22.144-19.2-25.856-34.56-25.856-23.296 0-33.536 8.32-37.632 14.848l13.44 6.4c-10.624 2.304-18.816 9.6-18.816 21.376 0 20.992 13.056 25.344 30.208 25.344Zm4.096-45.824h24.32c-1.408 18.432-4.992 43.904-28.544 43.904-7.552 0-11.392-5.376-11.392-22.144 0-16 5.248-21.76 15.616-21.76Zm-10.368-1.792c0-3.072 4.608-18.432 18.432-18.432 16.128 0 16.512 4.992 16.512 18.048h-28.8c-2.176 0-4.224.128-6.144.384ZM577.025 96h18.176V35.456l26.88 34.944 26.88-34.944V96h18.176V32h-18.432l-26.624 34.944L595.329 32h-18.304v64ZM731.15 32v64h18.176V34.176h38.528V96h18.176V32h-74.88Zm85.705 32.128c0 22.4 19.456 33.92 40.448 33.92 20.864 0 40.448-11.52 40.448-33.92 0-22.528-19.584-34.176-40.448-34.176-20.992 0-40.448 11.648-40.448 34.176ZM857.303 32c16 0 21.76 9.984 21.76 32.128 0 21.76-4.864 32-21.76 32-17.408 0-21.76-10.24-21.76-32 0-22.144 5.888-32.128 21.76-32.128Zm51.347 64h18.176V35.456l26.88 34.944 26.88-34.944V96h18.176V32H980.33l-26.624 34.944L926.954 32H908.65v64Zm100.96-31.872c0 22.4 19.45 33.92 40.44 33.92 20.87 0 40.45-11.52 40.45-33.92 0-22.528-19.58-34.176-40.45-34.176-20.99 0-40.44 11.648-40.44 34.176ZM1050.05 32c16 0 21.76 9.984 21.76 32.128 0 21.76-4.86 32-21.76 32-17.4 0-21.76-10.24-21.76-32 0-22.144 5.89-32.128 21.76-32.128Zm46.93 64h18.69c0-22.144 6.01-32.768 21.76-32.768h6.4V96H1162V63.232h6.15c15.74 0 21.76 10.624 21.76 32.768h18.69c0-21.248-15.49-34.944-37.51-34.944v-4.352c0-11.776.9-24.192 16.39-24.192 6.14 0 11 4.864 11 11.008 0 6.016-4.86 11.008-11 11.008v2.176c7.29 0 13.18-5.888 13.18-13.184 0-7.296-5.89-13.184-13.18-13.184-18.05 0-18.56 14.976-18.56 28.544v2.176H1162V.64h-18.17v60.416h-7.04V58.88c0-13.568-.64-28.544-18.69-28.544-7.17 0-13.18 5.888-13.18 13.184 0 7.296 6.01 13.184 13.18 13.184v-2.176c-6.02 0-11.01-4.992-11.01-11.008 0-6.144 4.99-11.008 11.01-11.008 15.49 0 16.38 12.416 16.38 24.192v4.352c-21.88 0-37.5 13.696-37.5 34.944Zm119.38-31.872c0 19.456 14.59 33.92 39.55 33.92 12.16 0 20.6-3.456 30.59-11.52l-1.15-1.408c-8.32 7.168-18.56 10.752-30.21 10.752-14.85 0-18.82-13.312-19.58-25.856h49.28c0-21.248-3.46-39.936-29.7-39.936-20.22 0-38.78 11.904-38.78 34.048Zm19.07 3.84v-3.712c0-13.568 3.07-32.128 19.71-32.128 23.55 0 27.52 16.64 27.52 35.84h-47.23ZM1296.15 96h18.18V35.456l26.88 34.944 26.88-34.944V96h18.17V32h-18.43l-26.62 34.944L1314.45 32h-18.3v64Z" fill="#1F1E1E"/>
</g></symbol><symbol id="vk"><g fill="none">
    <path d="M5.71 2A3.725 3.725 0 0 0 2 5.71v12.58A3.726 3.726 0 0 0 5.71 22h12.58A3.725 3.725 0 0 0 22 18.29V5.71A3.725 3.725 0 0 0 18.29 2H5.71Zm0 1.818h12.58c1.054 0 1.892.838 1.892 1.893v12.578a1.881 1.881 0 0 1-1.893 1.893H5.711a1.88 1.88 0 0 1-1.893-1.893V5.711c0-1.055.838-1.893 1.893-1.893Z" fill="currentColor"/>
    <path fill-rule="evenodd" clip-rule="evenodd" d="M17.725 9.406c.083-.234 0-.406-.398-.406h-1.312c-.334 0-.488.149-.572.313 0 0-.667 1.37-1.613 2.26-.306.257-.445.34-.612.34-.083 0-.209-.083-.209-.317v-2.19c0-.28-.092-.406-.37-.406h-2.064c-.208 0-.334.13-.334.254 0 .266.473.328.522 1.077v1.628c0 .357-.077.422-.244.422-.445 0-1.527-1.377-2.17-2.951C8.225 9.123 8.1 9 7.763 9H6.45c-.375 0-.45.149-.45.313 0 .292.445 1.744 2.072 3.665C9.157 14.289 10.685 15 12.076 15c.835 0 .938-.158.938-.43v-.991c0-.316.079-.379.343-.379.195 0 .529.082 1.308.714.89.75 1.036 1.086 1.537 1.086h1.313c.375 0 .563-.158.455-.47-.12-.31-.544-.76-1.108-1.295-.306-.304-.765-.632-.904-.796-.195-.21-.14-.304 0-.492 0 0 1.6-1.897 1.766-2.54Z" fill="currentColor"/>
</g></symbol><symbol id="x" viewBox="0 0 60 60"><g fill="none">
    <circle cx="30" cy="30" r="30" fill="#1F1E1E"/>
    <path d="M36 24 24 36M24 24l12 12" stroke="#fff" stroke-width="2" stroke-linecap="round" stroke-linejoin="round"/>
</g></symbol><symbol id="y" viewBox="0 0 26 26"><g fill="none">
    <circle cx="13" cy="13" r="13" fill="#fff"/>
    <path d="M19.71 8.21a1 1 0 0 0-1.42 0l-7.45 7.46-3.13-3.14A1.02 1.02 0 1 0 6.29 14l3.84 3.84a1.002 1.002 0 0 0 1.42 0l8.16-8.16a1 1 0 0 0 0-1.47Z" fill="#000"/>
</g></symbol></svg>