<svg width="20" height="18" viewBox="0 0 20 18" fill="none" xmlns="http://www.w3.org/2000/svg">
<path d="M14.48 7.40981C14.09 7.79981 13.44 7.79981 13.05 7.40981L8.57998 2.94981L1.52997 9.98981L0.869975 9.35981C0.308173 8.7973 -0.00738525 8.03481 -0.00738525 7.23981C-0.00738525 6.4448 0.308173 5.68231 0.869975 5.11981L5.10997 0.879806C5.67248 0.318004 6.43497 0.00244548 7.22997 0.00244548C8.02498 0.00244548 8.78747 0.318004 9.34998 0.879806L14.48 5.99981C14.87 6.38981 14.87 7.01981 14.48 7.40981ZM15.18 5.28981C15.96 6.06981 15.96 7.33981 15.18 8.11981C13.91 9.3898 12.57 8.33981 12.35 8.11981L8.58998 4.35981L3.01997 9.92981C2.92727 10.0223 2.85372 10.1322 2.80354 10.2532C2.75336 10.3742 2.72753 10.5038 2.72753 10.6348C2.72753 10.7658 2.75336 10.8955 2.80354 11.0164C2.85372 11.1374 2.92727 11.2473 3.01997 11.3398C3.40997 11.7298 4.03997 11.7298 4.43997 11.3398L9.05998 6.71981L9.76998 7.42981L5.14997 12.0498C5.05727 12.1423 4.98372 12.2522 4.93354 12.3732C4.88336 12.4942 4.85753 12.6238 4.85753 12.7548C4.85753 12.8858 4.88336 13.0155 4.93354 13.1364C4.98372 13.2574 5.05727 13.3673 5.14997 13.4598C5.53997 13.8498 6.16997 13.8498 6.56997 13.4598L11.19 8.83981L11.9 9.54981L7.27997 14.1698C7.18739 14.2624 7.11395 14.3723 7.06385 14.4933C7.01374 14.6142 6.98795 14.7439 6.98795 14.8748C6.98795 15.0057 7.01374 15.1354 7.06385 15.2563C7.11395 15.3773 7.18739 15.4872 7.27997 15.5798C7.37256 15.6724 7.48247 15.7458 7.60343 15.7959C7.7244 15.846 7.85404 15.8718 7.98497 15.8718C8.1159 15.8718 8.24555 15.846 8.36652 15.7959C8.48748 15.7458 8.59739 15.6724 8.68997 15.5798L13.31 10.9598L14.02 11.6698L9.39997 16.2898C9.30739 16.3824 9.23395 16.4923 9.18385 16.6133C9.13374 16.7342 9.10795 16.8639 9.10795 16.9948C9.10795 17.1257 9.13374 17.2554 9.18385 17.3763C9.23395 17.4973 9.30739 17.6072 9.39997 17.6998C9.58695 17.8868 9.84055 17.9918 10.105 17.9918C10.2359 17.9918 10.3656 17.966 10.4865 17.9159C10.6075 17.8658 10.7174 17.7924 10.81 17.6998L19.13 9.35981C19.6918 8.7973 20.0073 8.03481 20.0073 7.23981C20.0073 6.4448 19.6918 5.68231 19.13 5.11981L14.89 0.879806C14.3378 0.328235 13.5925 0.0134641 12.8121 0.00226261C12.0318 -0.00893888 11.2777 0.28431 10.71 0.819806L15.18 5.28981Z" fill="#BC3324"/>
</svg>
